<?xml version="1.0" encoding="utf-8"?>
<!-- Generator: Adobe Illustrator 25.0.1, SVG Export Plug-In . SVG Version: 6.00 Build 0)  -->
<!DOCTYPE svg PUBLIC "-//W3C//DTD SVG 1.1//EN" "http://www.w3.org/Graphics/SVG/1.1/DTD/svg11.dtd" [
	<!ENTITY ns_extend "http://ns.adobe.com/Extensibility/1.0/">
	<!ENTITY ns_ai "http://ns.adobe.com/AdobeIllustrator/10.0/">
	<!ENTITY ns_graphs "http://ns.adobe.com/Graphs/1.0/">
	<!ENTITY ns_vars "http://ns.adobe.com/Variables/1.0/">
	<!ENTITY ns_imrep "http://ns.adobe.com/ImageReplacement/1.0/">
	<!ENTITY ns_sfw "http://ns.adobe.com/SaveForWeb/1.0/">
	<!ENTITY ns_custom "http://ns.adobe.com/GenericCustomNamespace/1.0/">
	<!ENTITY ns_adobe_xpath "http://ns.adobe.com/XPath/1.0/">
]>
<svg version="1.1" id="レイヤー_1" xmlns:x="&ns_extend;" xmlns:i="&ns_ai;" xmlns:graph="&ns_graphs;"
	 xmlns="http://www.w3.org/2000/svg" xmlns:xlink="http://www.w3.org/1999/xlink" x="0px" y="0px" viewBox="0 0 560 288"
	 style="enable-background:new 0 0 560 288;" xml:space="preserve">
<style type="text/css">
	.st0{fill:#84A2D4;}
	.st1{fill:none;stroke:#84A2D4;stroke-width:0.5;stroke-linecap:round;stroke-linejoin:round;}
	.st2{fill:none;stroke:#000000;stroke-width:0.5;stroke-linecap:round;stroke-linejoin:round;}
</style>
<metadata>
	<sfw  xmlns="&ns_sfw;">
		<slices></slices>
		<sliceSourceBounds  bottomLeftOrigin="true" height="130.3800049" width="486.9599915" x="38.4500008" y="82.2699966">
			</sliceSourceBounds>
	</sfw>
</metadata>
<g>
	<g id="XMLID_3_">
		<g>
			<path d="M506.6600037,177.7599945c0,13.4600067-3.4599915,21.8300018-9.6000061,27.2700043
				c-0.25-0.3000031-0.5400085-0.5399933-0.9400024-0.7400055c6.0400085-5.1499939,9.4500122-13.0699921,9.4500122-27.0299988
				v-6.6799927c0-1.2900085,0-2.6199951-0.1499939-3.9100037c4.4599915-0.1999969,10.8399963-1.8800049,14.6000061-3.3699951
				c1.1900024-0.4499969,2.2299805-0.9400024,2.9699707-1.3899994l0.9400024,0.9400024
				c-1.1400146,0.4499969-2.1799927,0.8899994-3.3699951,1.3399963c-4.0100098,1.5299988-8.9100037,2.7700043-13.9100037,3.4199982
				v9.1600037h14.8000183c1.289978,0,2.3800049,0,3.7099609-0.1500092v1.2900085
				c-1.3399658-0.1500092-2.4299927-0.1500092-3.7099609-0.1500092h-3.2700195v23.6600037
				c0,1.2900085,0,2.3800049,0.1500244,3.7100067h-1.3800049c0.1499634-1.3400116,0.1499634-2.4300079,0.1499634-3.7100067
				v-23.6600037H506.6600037z"/>
			<path d="M485.4100037,165.7299957c-1.2900085,0-2.3800049,0-3.7099915,0.1500092v-1.2900085
				c0.4899902,0.0500031,0.9400024,0.1000061,1.3899841,0.1000061c0.7900085,0.0500031,1.480011,0.0500031,2.3300171,0.0500031
				h13.269989c1.2900085,0,2.3800049,0,3.7099915-0.1500092v1.2900085h-0.0099792
				c-1.3400269-0.1500092-2.4300232-0.1500092-3.710022-0.1500092H485.4100037z"/>
			<path d="M498.5299988,185.4299927v-11.8299866h-6.4299927h-6.1900024v7.4199982c0,1.5800018,0,3.019989-0.0500183,4.4099884
				H498.5299988z M484.8200073,180.9799957v-4.6999969c0-1.2400055,0-2.5699921-0.1499939-3.8099976
				c1.0899963,0.1000061,2.1299744,0.1499939,3.2200012,0.1499939h8.7099915c1.0400085,0,2.1300049,0,3.1699829-0.0999908
				c-0.1499939,1.0899963-0.1499939,2.0299988-0.1499939,3.1199951v7.7700043c0,1.0899963,0,2.0800018,0.1499939,3.1699982
				c-1.039978-0.1000061-2.1299744-0.1500092-3.1699829-0.1500092h-10.7900085
				c-0.3999939,8.75-1.7799988,13.8500061-4.6499939,18.1600037c-0.3500061-0.3000031-0.6900024-0.5-1.0400085-0.5899963
				C483.4899902,199.1000061,484.8200073,193.1600037,484.8200073,180.9799957z"/>
			<path d="M456.1199951,168.6999969c1.7799988,3.0200043,4.2099915,5.8899994,6.980011,8.1200104
				c2.4700012-2.3300018,4.8999939-5.5900116,6.2900085-8.9100037h-12.7800293
				C456.4599915,168.1600037,456.2600098,168.4499969,456.1199951,168.6999969z M463.1499939,178.1499939
				c-3.2200012,2.9200134-7.2299805,4.9500122-11.5799866,6.5800018c-0.1499939-0.3499908-0.4500122-0.6900024-0.7900085-0.9400024
				c4.5-1.5299988,8.5100098-3.6100006,11.5799866-6.2899933c-2.6699829-2.1799927-5.0999756-5.0500031-6.8299866-7.9700012
				c-1.480011,2.0299988-3.0700073,3.9100037-4.6499939,5.3999939c-0.2000122-0.2999878-0.5400085-0.5899963-0.9400024-0.7399902
				c2.8699951-2.5200043,5.6900024-6.2400055,7.7200012-10.1000061c0.5400085-1.0399933,0.9899902-2.0299988,1.2900085-3.0699921
				l1.2399902,0.4499969c-0.5400085,0.9900055-1.0400085,2.0299988-1.5800171,3.0699921
				c-0.4499817,0.7900085-0.8899841,1.5800018-1.3399963,2.3800049h14.3600159c1.1399841,0,2.2299805,0,3.5599976-0.1499939
				v1.2899933c-1.3399963-0.1499939-2.4200134-0.1499939-3.5599976-0.1499939h-1.1100159
				c-1.6799927,3.8600006-4.0599976,7.0800018-6.5799866,9.5500031c3.3699951,2.4799957,7.4700012,4.5499878,12.1799927,5.9399872
				c-0.2999878,0.25-0.5400085,0.6399994-0.6900024,0.9900055
				C470.9299927,182.9600067,466.6199951,180.7799988,463.1499939,178.1499939z"/>
			<path d="M451.8500061,190.1600037c-1.1400146,0-2.0800171,0-3.2200012,0.1499939v-1.2899933
				c1.1399841,0.1499939,2.0799866,0.1499939,3.2200012,0.1499939h8.1699829c0.3000183-1.1900024,0.5-2.3800049,0.6400146-3.5599976
				c0.0499878-0.6399994,0.1000061-1.3399963,0.1000061-2.0299988v-0.7400055l1.3399963,0.0599976
				c-0.2000122,0.9400024-0.3000183,1.9300079-0.3999939,2.8200073c-0.1500244,1.1900024-0.3500061,2.3300018-0.5900269,3.4599915
				h8.960022c1.039978,0,2.0799866-0.0499878,3.0700073-0.1499939c-0.1500244,0.7900085-0.2000122,1.2900085-0.25,1.9799957
				c-0.3500061,4.5-0.8900146,7.8700104-1.6300049,10.25c-0.6900024,2.2799988-2.0299988,2.9700012-4.210022,2.9700012
				c-1.6299744,0-3.3199768-0.1499939-5.0999756-0.4499969c0-0.3999939-0.1000061-0.7899933-0.25-1.1399994
				c1.9299927,0.3999939,3.7599792,0.5899963,5.2999878,0.5899963c1.7799988,0,2.769989-0.6399994,3.269989-2.1799927
				c0.7400208-2.3300018,1.2900085-5.6399994,1.6300049-10.8899994h-11.0400085
				c-0.9399719,3.3199921-2.5699768,6.4299927-5.1999817,9.2099915c-2.0299988,2.1300049-4.9500122,4.0599976-8.269989,5.5400085
				c-0.1500244-0.3500061-0.4000244-0.6900024-0.7400208-0.9400024c3.4200134-1.3399963,6.3900146-3.3699951,8.2700195-5.3500061
				c2.4799805-2.5699921,3.9599915-5.4400024,4.8499756-8.4599915H451.8500061z"/>
			<path d="M436.3200073,163.8999939h10.8899841c1.6300049,0,2.3300171,0,3.2200012-0.0999908l0.4500122,0.5899963
				c-0.3500061,0.3999939-0.5899963,0.7899933-1.4400024,1.9300079c-1.6799927,2.3299866-4.3600159,5.3499908-6.6300049,7.3299866
				c0.6400146,0.6900024,1.1900024,1.3400116,1.7799988,2.0299988l-0.8500061,0.7400055
				c-2.2799988-2.8699951-4.7999878-5.4900055-7.519989-7.6699982l0.8399963-0.5899963
				c1.730011,1.3899994,3.4599915,3.019989,5.1000061,4.8000031c2.2799988-1.980011,5.0499878-5.1500092,7.0299988-8.0700073
				h-12.8699951c-1.4900208,0-2.5200195,0-3.710022,0.1499939V163.75
				C433.7999878,163.8999939,434.8399963,163.8999939,436.3200073,163.8999939z"/>
			<path d="M435.1600037,178.1100006c-1.4400024,0-2.6700134,0.0500031-3.7099915,0.1499939v-1.2899933
				c1.0899963,0.1000061,2.2799988,0.1499939,3.7099915,0.1499939h12.0799866c1.6300049,0,2.3800049-0.0499878,3.2700195-0.1499939
				l0.5899963,0.5899963c-0.3000183,0.5400085-0.5,1.0400085-0.7400208,1.7799988
				c-0.6899719,1.9300079-1.5299988,4.0100098-3.0699768,6.3399963c-0.25-0.25-0.5400085-0.4499969-0.8900146-0.5399933
				c1.4900208-2.1799927,2.3800049-4.2599945,3.3200073-7.0299988h-6.6799927v24.1000061
				c0,1.9299927-0.7900085,2.6699982-3.0700073,2.6699982c-1.3900146,0-3.2200012-0.1500092-4.7000122-0.3500061
				c0-0.3500061-0.0999756-0.7899933-0.2999878-1.1399994c1.730011,0.3000031,3.5599976,0.5,4.8999939,0.5
				c1.6799927,0,2.0800171-0.4499969,2.0800171-1.8800049v-14.5999908l0.0999756-7.5700073
				c-2.0299988,6.480011-5.539978,12.4700012-10.1499939,17.2799988c-0.25-0.2999878-0.5899963-0.5399933-0.8899841-0.7399902
				c4.6999817-4.75,8.3199768-10.9900055,10.4400024-18.2700043H435.1600037z"/>
			<path d="M418.1499939,172.2599945h-14.3099976v5.3500061h14.3099976V172.2599945z M418.9400024,189.9400024h-15.1000061
				v5.5899963h15.1000061V189.9400024z M418.9400024,183.9900055h-15.1000061v4.9499969h15.1000061V183.9900055z
				 M402.75,172.2599945h-13.019989v5.3500061H402.75V172.2599945z M386.0799866,166.9700012
				c-1.289978,0-2.3799744,0-3.7099915,0.1499939v-1.2899933c1.3399963,0.1499939,2.4200134,0.1499939,3.7099915,0.1499939
				h16.6800232v-1.5399933c0-1.2900085,0-2.3800049-0.1500244-3.7100067H404
				c-0.1499939,1.3400116-0.1499939,2.4300079-0.1499939,3.7100067v1.5399933h17.769989
				c1.2900085,0,2.3800049,0,3.7099915-0.1499939v1.2899933c-1.3399963-0.1499939-2.4199829-0.1499939-3.7099915-0.1499939
				h-17.769989v4.3099976h11.7299805c1.3400269,0,2.5700073-0.0500031,3.7600098-0.1499939
				c-0.1000061,0.9400024-0.1000061,1.7299957-0.1000061,2.6699982v2.2799988c0,0.9900055,0,1.7299957,0.1000061,2.6699982
				c-1.1900024-0.1000061-2.4199829-0.1499939-3.7600098-0.1499939h-11.7299805V183h12.9700012
				c1.289978,0,2.3299866,0,3.3699951-0.1499939c-0.1499939,1.2899933-0.1499939,2.5699921-0.1499939,3.8600006v2.2299957h2.2299805
				c1.2900085,0,2.3800049,0,3.710022-0.1500092v1.2900085c-1.3399963-0.1500092-2.4200134-0.1500092-3.710022-0.1500092h-2.2299805
				v5.0500031c0,1.2900085,0.0499878,2.5700073,0.1499939,3.8600006h-1.2399902v-2.3199921h-0.0100098h-15.1000061v5.8399963
				c0,1.9299927-0.7900085,2.5699921-3.4599915,2.5699921c-1.9299927,0-4.1600037-0.1499939-6.0899963-0.3499908
				c0-0.3500061-0.1000061-0.7900085-0.3000183-1.1399994c2.1300049,0.3000031,4.4100037,0.5,6.3399963,0.5
				c2.0299988,0,2.4300232-0.3500061,2.4300232-1.7799988v-5.6399994h-13.4100037c-1.2900085,0-2.3800049,0-3.7099915,0.1499939
				v-1.2899933c1.3399963,0.1499939,2.4299927,0.1499939,3.7099915,0.1499939h13.4100037v-5.5899963H385.730011
				c-1.2900085,0-2.3800049,0-3.710022,0.1499939v-1.2899933c1.3399963,0.1499939,2.4300232,0.1499939,3.710022,0.1499939
				h17.0299988V184h-13.3200073c-1.0400085,0-2.1300049,0-3.2200012,0.1499939v-1.2899933
				c1.0899963,0.1499939,2.1799927,0.1499939,3.2200012,0.1499939h13.3200073v-4.4099884h-10.4400024
				c-1.3399963,0-2.6199951,0.0499878-3.7600098,0.1499939c0.1000061-0.9400024,0.1000061-1.6799927,0.1000061-2.6699982v-2.2799988
				c0-0.9400024,0-1.7299957-0.1000061-2.6699982c1.1400146,0.0999908,2.4200134,0.1499939,3.7600098,0.1499939h10.4400024
				v-4.3099976H386.0799866z"/>
			<path class="st0" d="M376.269989,92.0800018c-3.8099976,0-6.4299927,2.7200012-6.4299927,5.7900009
				c0,3.4599991,2.519989,5.8899994,5.9899902,5.8899994c3.6600037,0,6.5299988-2.7700043,6.5299988-6.5299988
				C382.3599854,94.4499969,379.5899963,92.0800018,376.269989,92.0800018z M368.730011,97.8700027
				c0-3.5100021,2.9700012-6.8300018,7.6699829-6.8300018c2.7200012,0,5,1.4899979,6.1900024,3.3199997l-0.1000061-5.3000031
				v-4.3600006c-6.4400024,0.1500015-13.8099976,0.4500046-19.3099976,0.6900024
				c-2.1300049,0.0999985-3.6099854,0.1999969-4.5,0.3000031l-0.0499878-1.3899994
				c0.5400085,0.0499954,1.1399841,0.0499954,1.6799927,0.0499954c0.4899902,0,1.2399902,0,2.8200073-0.0499954
				c5.1499939-0.2000046,12.769989-0.5,19.3500061-0.6399994v-3.7100067c0-1.2899933,0-2.6699982-0.1500244-3.7599945h1.3900146
				c-0.1000061,1.0899963-0.1499939,2.4700012-0.1499939,3.7599945v3.7100067c0.7399902,0,2.3299866-0.0500031,3.6600037-0.0500031
				h8.3699951c1.2399902,0,2.5700073,0,3.4199829-0.0999985v1.3399963
				c-0.8899841-0.0999985-2.3799744-0.1500015-3.3699951-0.1500015c-2.769989-0.0499954-5.9400024-0.0499954-8.269989-0.0499954
				c-1.2900085,0-2.9700012,0.0499954-3.8099976,0.0499954l0.0799866,10.9900055
				c0.5400085,1.4399948,0.8399963,3.2200012,0.8399963,5.25c0,5.1999969-2.1300049,9.3600006-6.3399963,12.6699982
				c-1.9299927,1.5299988-4.5,2.8700027-7.3800049,3.909996c-0.1999817-0.3499985-0.4499817-0.6399994-0.789978-0.9399948
				c2.9199829-0.9400024,5.5899963-2.2799988,7.5699768-3.8600006c3.960022-3.1699982,5.8400269-6.9800034,5.8400269-11.7799988
				c0-1.1399994-0.0500183-1.9300003-0.1500244-2.5699997h-0.0999756c-0.4900208,4.0599976-3.5600281,6.4300003-7.3800049,6.4300003
				C371.6499939,104.8000031,368.730011,101.8799973,368.730011,97.8700027z"/>
			<path d="M336.9200134,179.0899963c-1.2900085,0-2.3800049,0-3.710022,0.1500092v-1.2900085
				c1.3399963,0.1500092,2.4200134,0.1500092,3.710022,0.1500092h16.289978v-12.5700073
				c0-1.2899933,0-2.3800049-0.1499939-3.7099915h1.3900146c-0.1500244,1.3399963-0.1500244,2.4299927-0.1500244,3.7099915
				v12.5700073h17.3300171c1.2900085,0,2.3800049,0,3.7099915-0.1500092v1.2900085
				c-1.3399963-0.1500092-2.4299927-0.1500092-3.7099915-0.1500092h-17.3300171v21.8800049h14.2600098
				c1.2900085,0,2.3800049,0,3.7099915-0.1499939v1.2899933c-1.3399963-0.1499939-2.4299927-0.1499939-3.7099915-0.1499939
				h-28.7099915c-1.2900085,0-2.3800049,0-3.7099915,0.1499939v-1.2899933
				c1.3399963,0.1499939,2.4299927,0.1499939,3.7099915,0.1499939h13.3599854v-21.8800049H336.9200134z"/>
			<path class="st0" d="M338.0599976,84.3499985c-5-1.0899963-12.3299866-3.5599976-16.2900085-5.6899948l0.5-1.0400009
				c3.8099976,2.2299957,10.9900208,4.6999969,16.2400208,5.6899948L338.0599976,84.3499985z"/>
			<path class="st0" d="M314.9100037,102.0800018c0.5400085-4.1600037,1.3399963-8.9599991,1.980011-12.7200012
				c0.25-1.2900009,0.5-2.7200012,0.539978-3.9100037l1.3300171,0.1399994
				c-0.3000183,1.1900024-0.5400085,2.5700073-0.7900085,3.9100037c-0.7399902,4.0599976-1.6300049,9.6500015-2.0299988,12.6200027
				c4.2099915-3.8600006,10.8899841-6.3800049,16.8800049-6.3800049c8.4199829,0,12.9199829,3.7600021,12.9199829,8.6100006
				c0,6.8300018-6.4799805,11.0400009-15.289978,11.0400009c-4.7000122,0-9.210022-0.6900024-12.8200073-2.0299988
				c0-0.3499985-0.0500183-0.840004-0.1499939-1.2399979c3.8099976,1.6299973,8.4599915,2.2299957,12.9700012,2.2299957
				c8.4199829,0,14.2099915-3.8600006,14.2099915-10c0-4.409996-4.0599976-7.5699997-11.8300171-7.5699997
				c-5.789978,0-11.6299744,2.2799988-15.2999878,5.25c-0.7900085,0.6399994-1.2900085,1.1900024-1.7799988,1.9300003
				l-1.1400146-0.1999969C314.7099915,103.3099976,314.8099976,102.6699982,314.9100037,102.0800018z"/>
			<path d="M323.0599976,165.0800018h-10.6900024v8.5599976h10.6900024V165.0800018z M323.0599976,174.6399994h-10.6900024
				v8.6600037h10.6900024V174.6399994z M311.2900085,165.0899963h-9.8999939v8.5599976h9.8999939V165.0899963z
				 M311.2900085,174.6399994h-9.8999939v8.6600037h9.8999939V174.6399994z M299.5599976,203.1999969
				c-1.2900085,0-2.3800049,0-3.7099915,0.1500092v-1.2900085c1.3399963,0.1500092,2.4299927,0.1500092,3.7099915,0.1500092
				h11.730011v-9.1600037h-7.8200073c-1.2900085,0-2.3800049,0-3.7099915,0.1499939v-0.5399933v-0.75
				c1.3399963,0.1499939,2.4299927,0.1499939,3.7099915,0.1499939h7.8200073v-7.7700043h-7.2799988
				c-1.2900085,0-2.5700073,0-3.8600159,0.1500092c0.1499939-1.2900085,0.1499939-2.5700073,0.1499939-3.8600006v-12.7700043
				c0-1.2099915,0-2.3999939-0.1299744-3.6100006v-0.0099945c0-0.0800018-0.0100098-0.1600037-0.0200195-0.2400055
				c1.2900085,0.1500092,2.5700073,0.1500092,3.8600159,0.1500092h16.4299927c1.2900085,0,2.5700073,0,3.8599854-0.1500092
				c-0.1499939,1.2900085-0.1499939,2.5700073-0.1499939,3.8600006v12.7700043c0,1.2899933,0,2.5699921,0.1499939,3.8600006
				c-1.289978-0.1500092-2.5699768-0.1500092-3.8599854-0.1500092h-8.0700073v7.7700043h8.7600098
				c1.2900085,0,2.3800049,0,3.7099915-0.1499939v1.2899933c-1.3399963-0.1499939-2.4299927-0.1499939-3.7099915-0.1499939
				h-8.7600098v9.1600037h10.9400024c1.2900085,0,2.3800049,0,3.7099915-0.1500092v1.2900085
				c-1.3399963-0.1500092-2.4199829-0.1500092-3.6999817-0.1500092H299.5599976z"/>
			<path d="M282.6199951,197.8099976c0.8900146-0.1999969,1.980011-0.5899963,2.9700012-0.9400024
				c1.2900085-0.5,2.769989-1.0899963,4.3099976-1.7299957v-15.1499939h-3.1199951c-1.0400085,0-2.0799866,0-3.1199951,0.1499939
				v-1.2899933C284.75,179,285.7399902,179,286.7799988,179h3.1199951v-13.4199982h-3.3699951
				c-1.1900024,0-2.230011,0-3.4599915,0.1499939v-1.2899933c1.2399902,0.1499939,2.2299805,0.1499939,3.4599915,0.1499939h7.519989
				c1.1900024,0,2.1800232,0,3.4200134-0.1499939v1.2899933c-1.2399902-0.1499939-2.230011-0.1499939-3.4200134-0.1499939
				h-3.0699768V179h2.9700012c1.039978,0,2.0299988,0,3.1199951-0.1499939v1.2899933
				c-1.0899963-0.1499939-2.0800171-0.1499939-3.1199951-0.1499939h-2.9700012v14.6999969
				c2.1799927-0.9400024,4.5-2.0299988,6.5299988-3.0700073l0.1099854,1.0400085
				c-3.6600037,1.8300018-8.2200012,3.8600006-11.6799927,5.25c-0.9899902,0.3999939-1.980011,0.7399902-2.8200073,1.1900024
				L282.6199951,197.8099976z"/>
			<path class="st0" d="M285.2000122,83.5199966c-8.1200256,0.5-16.480011,1.140007-20.2000122,1.4400024
				c-1.480011,0.0999985-3.019989,0.25-4.2600098,0.4000015l-0.0999756-1.2900009
				c1.5299988,0,2.7199707-0.0500031,4.2599792-0.1500015c7.5700073-0.5899963,19.2600098-1.3899994,29.0100098-1.8799973
				c2.6699829-0.1500015,3.6600037-0.25,4.3099976-0.3499985l0.1000061,1.1800003
				c-2.230011,0.0999985-4.8999939,0.5400009-6.2900085,0.9899979
				c-9.6000061,3.1699982-15.5400085,10.4400024-15.5400085,17.5699997c0,5.4899979,3.6600037,9.75,10.7900085,11.6800003
				c1.6300049,0.4499969,3.2200012,0.7900009,4.6000061,0.9400024l-0.3000183,1.3399963
				c-1.4899902-0.4000015-3.019989-0.7900009-4.5999756-1.2399979c-7.6700134-2.1800003-11.5800171-6.8300018-11.5800171-12.6200027
				c0-7.6699982,5.7400208-14.7999954,16.0899963-18.3600006v-0.0999985
				C290.3999939,83.1699982,288.7200012,83.3199997,285.2000122,83.5199966z"/>
			<path d="M259.8099976,169.25l-0.9899902,0.4900055c-1.0400085-2.5700073-2.6199951-5.5400085-4.1100006-7.6699982
				l0.9399872-0.4900055C257.1400146,163.7599945,258.6700134,166.5800018,259.8099976,169.25z"/>
			<path d="M273.3200073,172.3600006h-19.8500061V183.75h19.8500061V172.3600006z M259.3099976,184.7400055
				c-0.1499939,11.5800018-4.9499969,16.9799957-11.4799957,20.4899902c-0.1500092-0.25-0.4499969-0.5899963-0.8399963-0.8399963
				c6.4799957-3.3199921,11.0899811-8.3199921,11.2400055-19.6499939h-2.1300049c-1.2900085,0-2.5700073,0-3.8600006,0.1499939
				c0.1499939-1.2899933,0.1499939-2.5699921,0.1499939-3.8600006v-5.7400055c0-1.4899902,0-2.769989-0.1499939-4.0599976
				c1.2899933,0.1500092,2.5699921,0.1500092,3.8600006,0.1500092h9.5
				c1.7799988-2.9199982,3.5599976-6.5299988,4.7999878-10.0500031l1.1400146,0.5
				c-1.4900208,3.7099915-3.2700195,7.0800018-4.8000183,9.5500031h3.960022c1.289978,0,2.5699768,0,3.8599854-0.1500092
				c-0.1499939,1.2900085-0.1499939,2.5700073-0.1499939,3.8600006v5.9400024c0,1.2900085,0,2.5700073,0.1499939,3.8600006
				c-1.2900085-0.1499939-2.5700073-0.1499939-3.8599854-0.1499939h-4.0599976v16.7799988
				c0,1.7299957,0.25,1.9799957,4.1099854,1.9799957c4.9500122,0,5.3500061-0.25,5.7900085-7.7700043
				c0.3500061,0.3000031,0.6399841,0.4499969,1.039978,0.5400085c-0.7399902,7.8199921-1.1899719,8.2200012-6.8299866,8.2200012
				c-4.7000122,0-5.2000122-0.3500061-5.2000122-2.8200073v-16.9299927H259.3099976z"/>
			<path class="st0" d="M246.3899994,96.7799988c-1.8300018-4.4599991-4.3099976-8.6100006-7.4700012-12.1800003
				l0.9900055-0.5400009c3.0699921,3.5600052,5.6399994,7.8700027,7.4700012,12.3300018
				c1.5299988,3.7099991,2.6199951,7.6200027,3.2200012,11.2900009l-1.0900116,0.4300003
				C248.9700012,104.3000031,247.8800049,100.4400024,246.3899994,96.7799988z"/>
			<path d="M242.0899963,177.1600037c-1.6799927,5.8399963-5,12.2799988-8.8600006,16.8799896
				c-0.1999969-0.3999939-0.5-0.6899872-0.7899933-0.8899994c3.9100037-4.3600006,7.4199982-10.8899994,9.2599945-17.6199951
				h-4.8000031c-1.0899963,0-2.0299988,0-3.2200012,0.1499939v-1.2899933
				c1.1900024,0.1499939,2.1300049,0.1499939,3.2200012,0.1499939h5.0500031v-8.9099884
				c-2.5200043,0.6900024-5.3000031,1.2899933-8.0200043,1.6799927c-0.0499878-0.3000031-0.1999969-0.6900024-0.4499969-0.9899902
				c4.9000092-0.6400146,9.8500061-1.8800049,13.3200073-3.4200134c1.0899963-0.4499969,1.8799896-0.8399963,2.6199951-1.3899994
				l0.8399963,1.0400085c-1.0899963,0.4499969-1.8799896,0.7399902-2.9199982,1.1900024
				c-1.2899933,0.5399933-2.7200012,1.0899963-4.3099976,1.5299988v9.2599945h3.7100067
				c1.1399994,0,2.0299988,0,3.2200012-0.1499939v1.2899933c-1.1900024-0.1499939-2.0800018-0.1499939-3.2200012-0.1499939
				h-3.5100098c1.5299988,4.1599884,3.9100037,8.0699921,6.480011,10.7899933
				c-0.3000031,0.25-0.5400085,0.5899963-0.7400055,0.9400024c-2.4300079-2.8200073-4.6999969-6.6799927-6.0899963-10.3000031
				l0.1499939,8.2200012v16.0400085c0,1.2399902,0,2.6199951,0.1499939,4.2099915h-1.3899994
				c0.1500092-1.5800018,0.1500092-2.9700012,0.1500092-4.2099915v-16.0400085L242.0899963,177.1600037z"/>
			<path class="st0" d="M213.7100067,86.3899994v-1.5899963c0-1.8300018-0.0500031-2.7700043-0.1500092-3.7100067h1.3899994
				c-0.0999908,0.9400024-0.1499939,1.8800049-0.1499939,3.7100067v1.6800003h0.0099945
				c0,11.8799973,1.8300018,19.0599976,4.0100098,22.6199951c1.4799957,2.4300003,2.719986,3.0200043,3.4599915,3.0200043
				s1.6800079-0.5,3.0700073-2.9200058c1.0399933-1.8299942,2.1799927-5.0499954,2.9199982-8.4199982
				c0.25,0.3499985,0.5899963,0.6399994,0.9400024,0.7900009c-0.7900085,3.0699997-1.9300079,6.2900009-2.9700012,8.1200027
				c-1.6300049,2.8699951-2.7200012,3.4700012-3.9600067,3.4700012c-1.1900024,0-2.6199951-0.6900024-4.4100037-3.5100021
				C215.4900055,105.8899994,213.7100067,98.6600037,213.7100067,86.3899994z"/>
			<path d="M221.1999969,200.8300018c-8.3699951,1.2899933-16.0899963,2.0800018-23.6100006,2.5200043
				c-1.5299988,0.0999908-2.8699951,0.1999969-4.0599976,0.3499908l-0.3000031-1.3399963
				c1.8300018,0,3.6100006-0.0500031,5.6900024-0.1499939h0.1500092c3.0699921-4.4600067,5.8899994-9.7000122,8.269989-15.1000061
				c0.5899963-1.3899994,1.0400085-2.5700073,1.3399963-3.7100067l1.3400116,0.5
				c-0.5900116,1.0900116-1.0400085,2.1800079-1.6800079,3.5600128c-2.4799957,5.3999939-5.3499908,10.6399994-8.0699921,14.6999969
				c5.8399963-0.3500061,13.019989-1.0899963,20.25-2.230011c-2.1300049-2.769989-4.5500031-5.6899872-7.1300049-8.4599915
				l0.9400024-0.5899963c4.2099915,4.5999908,8.0699921,9.5499878,10.9400024,13.9599915l-0.9499969,0.6399994
				C223.3800049,204,222.3399963,202.4100037,221.1999969,200.8300018z"/>
			<path d="M188.6399994,179.8800049c-1.2899933,0-2.3800049,0-3.7100067,0.1499939v-1.2899933
				c1.3400116,0.1499939,2.4300079,0.1499939,3.7100067,0.1499939h10.8399963
				c0.5900116-1.6300049,1.0900116-3.3199921,1.5299988-5.0500031c0.3500061-1.3399963,0.5900116-2.5699921,0.6900024-3.8099976
				l1.3800049,0.25c-0.4000092,1.1900024-0.6900024,2.4199982-1.0400085,3.7599945
				c-0.4499969,1.6300049-0.9399872,3.2700043-1.4799957,4.8500061h22.2299957c1.2900085,0,2.3800049,0,3.7100067-0.1499939
				v1.2899933c-1.3399963-0.1499939-2.4299927-0.1499939-3.7100067-0.1499939h-22.5699921
				c-3.5099945,9.8499908-9.0099945,18.0699921-15.7900085,23.6599884c-0.25-0.25-0.5399933-0.5-0.9399872-0.6899872
				c6.7299957-5.4500122,12.1799927-13.3700104,15.6399994-22.9700012H188.6399994z"/>
			<path d="M186.5,169.3800049c0-0.8899994,0-1.480011-0.1000061-2.3800049
				c1.1399994,0.1000061,2.3800049,0.1499939,3.7600098,0.1499939h14.5999908v-3.1199951
				c0-0.9400024,0-1.7799988-0.1499939-2.7200012H206c-0.1499939,0.9900055-0.1499939,1.7799988-0.1499939,2.7200012v3.1199951
				h15.4899902c1.3899994,0,2.6200104-0.0499878,3.7600098-0.1499939C225,167.8899994,225,168.4900055,225,169.3800049V172.75
				c0,0.8899994,0,1.4400024,0.1000061,2.3300018h-1.1800079v-6.9300079h-36.3300018v6.9300079h-1.1900024
				C186.5,174.1900024,186.5,173.6399994,186.5,172.75V169.3800049z"/>
			<path class="st0" d="M175.1600037,94.1600037c0,6.9299927,0.3000031,11.4799957,0.8899994,15.1499939
				c4.8099976-4.4599991,8.2700043-10.6999969,10.4499969-16.4899979c-1.0899963-0.0999985-2.1300049-0.1500015-3.2200012-0.1500015
				C180.8000031,92.6699982,177.6399994,93.2099991,175.1600037,94.1600037z M174.0700073,94.5500031
				c-6.6700134,3.1699982-10.5400085,8.3199997-10.5400085,13.2199936c0,3.3700027,1.9300079,5.4900055,4.6499939,5.4900055
				c1.8300018,0,4.2100067-0.7400055,7.030014-3.1700058C174.4700012,106.0800018,174.0700073,101.4800034,174.0700073,94.5500031z
				 M168.0899963,114.25c-3.1699982,0-5.6399994-2.4800034-5.6399994-6.4400024c0-5.25,3.9600067-10.8899994,11.6300049-14.3499985
				c0-2.4300003,0.0999908-5.4000015,0.3999939-8.8099976c-3.3699951,0-5.6900024-0.0999985-7.769989-0.2000046
				c-1.1399994-0.0499954-2.1800079-0.0999985-3.1700134-0.1499939l0.0500031-1.2900009
				c0.9900055,0.1999969,2.0299988,0.2999954,3.1200104,0.4000015c1.8799896,0.1499939,4.3600006,0.1999969,7.8199921,0.1999969
				c0.1499939-1.6800003,0.3000031-3.0699997,0.4499969-4.5500031c0.1500092-1.5299988,0.25-2.6199951,0.25-3.4599991
				L176.6199951,75.75c-0.1999969,0.8399963-0.3999939,1.8799973-0.5399933,3.4199982
				c-0.1500092,1.340004-0.3000031,2.8199997-0.4499969,4.4599991C178.75,83.5800018,183.75,83.2799988,188.3500061,82.5899963
				C190.6799927,82.2399979,193,81.8000031,195.1799927,81.25l0.1000061,1.1900024
				c-2.2299957,0.4499969-4.5,0.8899994-6.7299957,1.1899948c-4.75,0.6900024-9.75,0.9900055-12.9700012,1.0400009
				c-0.3000031,3.3199997-0.4000092,6.090004-0.4000092,8.4599991c2.3800049-0.8899994,5.4900055-1.4799957,8.1200104-1.4799957
				c1.1900024,0,2.3300018,0.0499954,3.6100006,0.1999969c0.25-0.7900009,0.5-1.4799957,0.6900024-2.1800003
				c0.2999878-0.9399948,0.5-1.7299957,0.6399994-2.6699982l1.2799988,0.3300018
				c-0.3500061,0.8899994-0.5900116,1.6800003-0.8899994,2.5699997c-0.25,0.6899948-0.4500122,1.3399963-0.7400055,2.0800018
				c6.7299957,1.0399933,11.4799957,5.6899948,11.4799957,11.0899963c0,7.4199982-6.8300018,12.6200027-17.4700012,13.8600006
				c-0.0999908-0.3499985-0.2999878-0.7399979-0.5899963-1.090004c10.25-0.8899994,16.9799957-5.8899994,16.9799957-12.7699966
				c0-4.8000031-4.2099915-9.0599976-10.7399902-10.1500015c-2.3800049,6.2400055-6.0400085,12.9700012-11.3399963,17.6699982
				C173.1399994,113.3099976,170.2700043,114.25,168.0899963,114.25z"/>
			<path d="M138.5399933,182.6499939h35.4900055c1.2900085,0,2.3800049,0,3.7100067-0.1499939v1.2899933
				c-1.3400116-0.1499939-2.4300079-0.1499939-3.7100067-0.1499939h-35.4900055c-1.2899933,0-2.3799896,0-3.7099915,0.1499939V182.5
				C136.1699982,182.6499939,137.2599945,182.6499939,138.5399933,182.6499939z"/>
			<path d="M120.4700012,178.5500031c-3.0200043-3.2200012-6.090004-5.9900055-9.5999985-8.5599976l0.7900009-0.6900024
				c1.8799973,1.3899994,3.7599945,2.9700012,5.5399933,4.5999908c2.9200058-2.4299927,5.9400024-5.5,8.0200043-8.6599884
				h-12.6699982c-1.4800034,0-2.5200043,0-3.7100067,0.1499939v-1.25v-0.0399933
				C110.0299988,164.25,111.0699997,164.25,112.5500031,164.25h10.6899948c1.6300049,0,2.3300018,0,3.2200012-0.1000061
				l0.4899979,0.5900116c-0.3499985,0.4499969-0.6899948,0.9399872-1.4799957,2.0299988
				c-1.6300049,2.2799988-4.5500031,5.3000031-7.5200043,7.769989c1.1399994,1.0400085,2.2300034,2.1300049,3.3199997,3.2200012
				L120.4700012,178.5500031z"/>
			<path d="M111.5199966,180.3200073c-1.4399948,0-2.6699982,0.0499878-3.7099991,0.1499939v-0.1699982v-1.1200104
				c1.090004,0.1000061,2.2799988,0.1500092,3.7099991,0.1500092h8.9500046h4.909996
				c1.6300049,0,2.3800049-0.0500031,3.2699966-0.1500092l0.5900116,0.6400146
				c-0.3500061,0.5399933-0.6900024,1.1899872-1.0900116,1.8299866c-1.4899902,2.4200134-3.8099976,5.3000031-6.2899933,7.5200043
				c-0.1999969-0.25-0.5400009-0.5-0.8899994-0.6399994c2.6199951-2.2299957,5.1500015-5.3000031,6.7799988-8.2200012h-9.5
				v21.9000092c0,1.9299927-0.7900009,2.5699921-3.0699997,2.5699921c-1.6299973,0-3.9599991-0.1499939-5.8899994-0.3999939
				c0-0.3500061-0.0999985-0.7900085-0.3000031-1.1399994c1.9800034,0.3499908,4.3600006,0.5399933,6.090004,0.5399933
				c1.6800003,0,2.0800018-0.3500061,2.0800018-1.7799988v-21.6799927H111.5199966z"/>
			<path d="M97.0100021,182.0599976h7.8699951v-8.0200043h-7.8699951V182.0599976z M104.8799973,165.2799988h-7.8699951v7.7700043
				h7.8699951V165.2799988z M88.4499969,182.0599976h7.4700012v-8.0200043h-7.4700012V182.0599976z M95.9199982,165.2799988
				h-7.4700012v7.7700043h7.4700012V165.2799988z M87.3600006,168c0-1.2899933,0-2.5700073-0.1500015-3.8600006
				c1.2900009,0.1499939,2.5699997,0.1499939,3.8600006,0.1499939h11.1900024c1.2900009,0,2.5699997,0,3.8600006-0.1499939
				c-0.1500015,1.2899933-0.1500015,2.5700073-0.1500015,3.8600006v11.3300018c0,0.3199921,0,0.6399994,0.0100021,0.9700012
				c0,0.9599915,0.0299988,1.9199982,0.1399994,2.8899994c-1.2900009-0.1500092-2.5699997-0.1500092-3.8600006-0.1500092h-5.25
				v6.9300079h5.8899994c1.2900009,0,2.3799973,0,3.7099991-0.1499939v1.2899933
				c-1.340004-0.1499939-2.4300003-0.1499939-3.7099991-0.1499939h-5.8899994v8.5599976
				c3.659996-0.7400055,7.5199966-1.5800018,10.4899979-2.3800049l-0.0400009,1.0099945
				c-5.2999954,1.3899994-13.1200027,3.0200043-18.2200012,3.8100128c-1.2900009,0.1999969-2.6199951,0.3999939-3.909996,0.6899872
				l-0.2000046-1.3899994c1.2400055,0,2.6200027-0.1499939,4.0600052-0.3499908
				c1.8299942-0.25,4.2099991-0.6900024,6.7299957-1.1900024v-8.7599945h-5.6899948c-1.2900009,0-2.3800049,0-3.7100067,0.1499939
				v-1.2899933c1.340004,0.1499939,2.4300003,0.1499939,3.7100067,0.1499939h5.6899948v-6.9300079h-4.8499985
				c-1.2900009,0-2.5699997,0-3.8600006,0.1500092c0.1500015-1.2900085,0.1500015-2.5700073,0.1500015-3.8600006V168z"/>
			<path d="M56.2299995,186.4700012v-14.0599976H39.9399986v14.0599976H56.2299995z M57.3100014,201.6699982
				c0,1.2900085,0,2.3800049,0.1499977,3.7100067h-1.3899994c0.1500015-1.3400116,0.1500015-2.4300079,0.1500015-3.7100067
				v-14.2099915H39.9399986v3.8099976h-1.2399979c0.1499977-1.2900085,0.1499977-2.5700073,0.1499977-3.8600006v-12.2799988
				c0-1.2900085,0-2.5700073-0.1499977-3.8600006c1.2900009,0.1499939,2.5699997,0.1499939,3.8600006,0.1499939h13.6599998
				v-6.4299927c0-1.2900085,0-2.3800049-0.1500015-3.7100067h1.3899994
				c-0.1499977,1.3399963-0.1499977,2.4300079-0.1499977,3.7100067v6.4299927h14.4500008
				c1.2900009,0,2.5699997,0,3.8600006-0.1499939c-0.1500015,1.2899933-0.1500015,2.5699921-0.1500015,3.8600006v12.2799988
				c0,1.2899933,0,2.5699921,0.1500015,3.8600006h-1.2400055v-3.8099976H57.3100014V201.6699982z M74.3899994,172.4100037
				h-17.079998v14.0599976h17.079998V172.4100037z"/>
		</g>
		<g>
			<path class="st1" d="M189.5200043,87.3300018c-0.3500061,0.8899994-0.5900116,1.6800003-0.8899994,2.5699997
				c-0.25,0.6899948-0.4500122,1.3399963-0.7400055,2.0800018c6.7299957,1.0399933,11.4799957,5.6899948,11.4799957,11.0899963
				c0,7.4199982-6.8300018,12.6200027-17.4700012,13.8600006c-0.0999908-0.3499985-0.2999878-0.7399979-0.5899963-1.090004
				c10.25-0.8899994,16.9799957-5.8899994,16.9799957-12.7699966c0-4.8000031-4.2099915-9.0599976-10.7399902-10.1500015
				c-2.3800049,6.2400055-6.0400085,12.9700012-11.3399963,17.6699982
				c-3.0700073,2.7200012-5.9400024,3.6600037-8.1200104,3.6600037c-3.1699982,0-5.6399994-2.4800034-5.6399994-6.4400024
				c0-5.25,3.9600067-10.8899994,11.6300049-14.3499985c0-2.4300003,0.0999908-5.4000015,0.3999939-8.8099976
				c-3.3699951,0-5.6900024-0.0999985-7.769989-0.2000046c-1.1399994-0.0499954-2.1800079-0.0999985-3.1700134-0.1499939
				l0.0500031-1.2900009c0.9900055,0.1999969,2.0299988,0.2999954,3.1200104,0.4000015
				c1.8799896,0.1499939,4.3600006,0.1999969,7.8199921,0.1999969c0.1499939-1.6800003,0.3000031-3.0699997,0.4499969-4.5500031
				c0.1500092-1.5299988,0.25-2.6199951,0.25-3.4599991L176.6199951,75.75
				c-0.1999969,0.8399963-0.3999939,1.8799973-0.5399933,3.4199982c-0.1500092,1.340004-0.3000031,2.8199997-0.4499969,4.4599991
				C178.75,83.5800018,183.75,83.2799988,188.3500061,82.5899963C190.6799927,82.2399979,193,81.8000031,195.1799927,81.25
				l0.1000061,1.1900024c-2.2299957,0.4499969-4.5,0.8899994-6.7299957,1.1899948
				c-4.75,0.6900024-9.75,0.9900055-12.9700012,1.0400009c-0.3000031,3.3199997-0.4000092,6.090004-0.4000092,8.4599991
				c2.3800049-0.8899994,5.4900055-1.4799957,8.1200104-1.4799957c1.1900024,0,2.3300018,0.0499954,3.6100006,0.1999969
				c0.25-0.7900009,0.5-1.4799957,0.6900024-2.1800003c0.2999878-0.9399948,0.5-1.7299957,0.6399994-2.6699982
				L189.5200043,87.3300018z"/>
			<path class="st1" d="M175.2100067,110.0899963c-0.7400055-4.0099945-1.1399994-8.609993-1.1399994-15.5399933
				c-6.6700134,3.1699982-10.5400085,8.3199997-10.5400085,13.2199936c0,3.3700027,1.9300079,5.4900055,4.6499939,5.4900055
				C170.0099945,113.2600021,172.3899994,112.5199966,175.2100067,110.0899963z"/>
			<path class="st1" d="M186.5,92.8199997c-1.0899963-0.0999985-2.1300049-0.1500015-3.2200012-0.1500015
				c-2.4799957,0-5.6399994,0.5400009-8.1199951,1.4900055c0,6.9299927,0.3000031,11.4799957,0.8899994,15.1499939
				C180.8600006,104.8499985,184.3200073,98.6100006,186.5,92.8199997z"/>
			<path class="st1" d="M228.2700043,100.7799988c0.25,0.3499985,0.5899963,0.6399994,0.9400024,0.7900009
				c-0.7900085,3.0699997-1.9300079,6.2900009-2.9700012,8.1200027c-1.6300049,2.8699951-2.7200012,3.4700012-3.9600067,3.4700012
				c-1.1900024,0-2.6199951-0.6900024-4.4100037-3.5100021c-2.3799896-3.7600021-4.1599884-10.9899979-4.1599884-23.2600021
				v-1.5899963c0-1.8300018-0.0500031-2.7700043-0.1500092-3.7100067h1.3899994
				c-0.0999908,0.9400024-0.1499939,1.8800049-0.1499939,3.7100067v1.6800003h0.0099945
				c0,11.8799973,1.8300018,19.0599976,4.0100098,22.6199951c1.4799957,2.4300003,2.719986,3.0200043,3.4599915,3.0200043
				s1.6800079-0.5,3.0700073-2.9200058C226.3899994,107.3700027,227.5299988,104.1500015,228.2700043,100.7799988z"/>
			<path class="st1" d="M249.5099945,108.1100006c-0.5399933-3.8099976-1.6299896-7.6699982-3.1199951-11.3300018
				c-1.8300018-4.4599991-4.3099976-8.6100006-7.4700012-12.1800003l0.9900055-0.5400009
				c3.0699921,3.5600052,5.6399994,7.8700027,7.4700012,12.3300018c1.5299988,3.7099991,2.6199951,7.6200027,3.2200012,11.2900009
				L249.5099945,108.1100006z"/>
			<path class="st1" d="M298.2200012,81.6900024l0.1000061,1.1800003c-2.230011,0.0999985-4.8999939,0.5400009-6.2900085,0.9899979
				c-9.6000061,3.1699982-15.5400085,10.4400024-15.5400085,17.5699997c0,5.4899979,3.6600037,9.75,10.7900085,11.6800003
				c1.6300049,0.4499969,3.2200012,0.7900009,4.6000061,0.9400024l-0.3000183,1.3399963
				c-1.4899902-0.4000015-3.019989-0.7900009-4.5999756-1.2399979c-7.6700134-2.1800003-11.5800171-6.8300018-11.5800171-12.6200027
				c0-7.6699982,5.7400208-14.7999954,16.0899963-18.3600006v-0.0999985c-1.0899963,0.0999985-2.769989,0.25-6.289978,0.4499969
				c-8.1200256,0.5-16.480011,1.140007-20.2000122,1.4400024c-1.480011,0.0999985-3.019989,0.25-4.2600098,0.4000015
				l-0.0999756-1.2900009c1.5299988,0,2.7199707-0.0500031,4.2599792-0.1500015
				c7.5700073-0.5899963,19.2600098-1.3899994,29.0100098-1.8799973
				C296.5799866,81.8899994,297.5700073,81.7900009,298.2200012,81.6900024z"/>
			<path class="st1" d="M332.8200073,95.7399979c8.4199829,0,12.9199829,3.7600021,12.9199829,8.6100006
				c0,6.8300018-6.4799805,11.0400009-15.289978,11.0400009c-4.7000122,0-9.210022-0.6900024-12.8200073-2.0299988
				c0-0.3499985-0.0500183-0.840004-0.1499939-1.2399979c3.8099976,1.6299973,8.4599915,2.2299957,12.9700012,2.2299957
				c8.4199829,0,14.2099915-3.8600006,14.2099915-10c0-4.409996-4.0599976-7.5699997-11.8300171-7.5699997
				c-5.789978,0-11.6299744,2.2799988-15.2999878,5.25c-0.7900085,0.6399994-1.2900085,1.1900024-1.7799988,1.9300003
				l-1.1400146-0.1999969c0.1000061-0.4500046,0.2000122-1.090004,0.3000183-1.6800003
				c0.5400085-4.1600037,1.3399963-8.9599991,1.980011-12.7200012c0.25-1.2900009,0.5-2.7200012,0.539978-3.9100037
				l1.3300171,0.1399994c-0.3000183,1.1900024-0.5400085,2.5700073-0.7900085,3.9100037
				c-0.7399902,4.0599976-1.6300049,9.6500015-2.0299988,12.6200027
				C320.1499939,98.2600021,326.8299866,95.7399979,332.8200073,95.7399979z"/>
			<path class="st1" d="M338.5100098,83.3099976l-0.4500122,1.0400009c-5-1.0899963-12.3299866-3.5599976-16.2900085-5.6899948
				l0.5-1.0400009C326.0799866,79.8499985,333.2600098,82.3199997,338.5100098,83.3099976z"/>
			<path class="st1" d="M399.019989,83.5100021v1.3399963c-0.8899841-0.0999985-2.3799744-0.1500015-3.3699951-0.1500015
				c-2.769989-0.0499954-5.9400024-0.0499954-8.269989-0.0499954c-1.2900085,0-2.9700012,0.0499954-3.8099976,0.0499954
				l0.0799866,10.9900055c0.5400085,1.4399948,0.8399963,3.2200012,0.8399963,5.25
				c0,5.1999969-2.1300049,9.3600006-6.3399963,12.6699982c-1.9299927,1.5299988-4.5,2.8700027-7.3800049,3.909996
				c-0.1999817-0.3499985-0.4499817-0.6399994-0.789978-0.9399948c2.9199829-0.9400024,5.5899963-2.2799988,7.5699768-3.8600006
				c3.960022-3.1699982,5.8400269-6.9800034,5.8400269-11.7799988c0-1.1399994-0.0500183-1.9300003-0.1500244-2.5699997h-0.0999756
				c-0.4900208,4.0599976-3.5600281,6.4300003-7.3800049,6.4300003c-4.1100159,0-7.0299988-2.9200058-7.0299988-6.9300003
				c0-3.5100021,2.9700012-6.8300018,7.6699829-6.8300018c2.7200012,0,5,1.4899979,6.1900024,3.3199997l-0.1000061-5.3000031
				v-4.3600006c-6.4400024,0.1500015-13.8099976,0.4500046-19.3099976,0.6900024
				c-2.1300049,0.0999985-3.6099854,0.1999969-4.5,0.3000031l-0.0499878-1.3899994
				c0.5400085,0.0499954,1.1399841,0.0499954,1.6799927,0.0499954c0.4899902,0,1.2399902,0,2.8200073-0.0499954
				c5.1499939-0.2000046,12.769989-0.5,19.3500061-0.6399994v-3.7100067c0-1.2899933,0-2.6699982-0.1500244-3.7599945h1.3900146
				c-0.1000061,1.0899963-0.1499939,2.4700012-0.1499939,3.7599945v3.7100067c0.7399902,0,2.3299866-0.0500031,3.6600037-0.0500031
				h8.3699951C396.8399963,83.6100006,398.1700134,83.6100006,399.019989,83.5100021z"/>
			<path class="st1" d="M382.3599854,97.2300034c0-2.7800064-2.769989-5.1500015-6.0899963-5.1500015
				c-3.8099976,0-6.4299927,2.7200012-6.4299927,5.7900009c0,3.4599991,2.519989,5.8899994,5.9899902,5.8899994
				C379.4899902,103.7600021,382.3599854,100.9899979,382.3599854,97.2300034z"/>
			<path class="st2" d="M74.3799973,187.4600067H57.3100014v14.2099915c0,1.2900085,0,2.3800049,0.1499977,3.7100067h-1.3899994
				c0.1500015-1.3400116,0.1500015-2.4300079,0.1500015-3.7100067v-14.2099915H39.9399986v3.8099976h-1.2399979
				c0.1499977-1.2900085,0.1499977-2.5700073,0.1499977-3.8600006v-12.2799988c0-1.2900085,0-2.5700073-0.1499977-3.8600006
				c1.2900009,0.1499939,2.5699997,0.1499939,3.8600006,0.1499939h13.6599998v-6.4299927
				c0-1.2900085,0-2.3800049-0.1500015-3.7100067h1.3899994c-0.1499977,1.3399963-0.1499977,2.4300079-0.1499977,3.7100067
				v6.4299927h14.4500008c1.2900009,0,2.5699997,0,3.8600006-0.1499939
				c-0.1500015,1.2899933-0.1500015,2.5699921-0.1500015,3.8600006v12.2799988c0,1.2899933,0,2.5699921,0.1500015,3.8600006
				h-1.2400055V187.4600067z"/>
			<line class="st2" x1="74.3799973" y1="187.4600067" x2="74.3899994" y2="187.4600067"/>
			<rect x="39.9399986" y="172.4100037" class="st2" width="16.2900009" height="14.0600004"/>
			<rect x="57.3100014" y="172.4100037" class="st2" width="17.0799999" height="14.0600004"/>
			<path class="st2" d="M105.9800034,180.3000031c0,0.9599915,0.0299988,1.9199982,0.1399994,2.8899994
				c-1.2900009-0.1500092-2.5699997-0.1500092-3.8600006-0.1500092h-5.25v6.9300079h5.8899994
				c1.2900009,0,2.3799973,0,3.7099991-0.1499939v1.2899933c-1.340004-0.1499939-2.4300003-0.1499939-3.7099991-0.1499939
				h-5.8899994v8.5599976c3.659996-0.7400055,7.5199966-1.5800018,10.4899979-2.3800049l-0.0400009,1.0099945
				c-5.2999954,1.3899994-13.1200027,3.0200043-18.2200012,3.8100128c-1.2900009,0.1999969-2.6199951,0.3999939-3.909996,0.6899872
				l-0.2000046-1.3899994c1.2400055,0,2.6200027-0.1499939,4.0600052-0.3499908
				c1.8299942-0.25,4.2099991-0.6900024,6.7299957-1.1900024v-8.7599945h-5.6899948c-1.2900009,0-2.3800049,0-3.7100067,0.1499939
				v-1.2899933c1.340004,0.1499939,2.4300003,0.1499939,3.7100067,0.1499939h5.6899948v-6.9300079h-4.8499985
				c-1.2900009,0-2.5699997,0-3.8600006,0.1500092c0.1500015-1.2900085,0.1500015-2.5700073,0.1500015-3.8600006V168
				c0-1.2899933,0-2.5700073-0.1500015-3.8600006c1.2900009,0.1499939,2.5699997,0.1499939,3.8600006,0.1499939h11.1900024
				c1.2900009,0,2.5699997,0,3.8600006-0.1499939c-0.1500015,1.2899933-0.1500015,2.5700073-0.1500015,3.8600006v11.3300018
				C105.9700012,179.6499939,105.9700012,179.9700012,105.9800034,180.3000031z"/>
			<rect x="88.4499969" y="165.2799988" class="st2" width="7.4699998" height="7.77"/>
			<rect x="88.4499969" y="174.0399933" class="st2" width="7.4699998" height="8.0200005"/>
			<rect x="97.0100021" y="165.2799988" class="st2" width="7.8699999" height="7.77"/>
			<rect x="97.0100021" y="174.0399933" class="st2" width="7.8699999" height="8.0200005"/>
			<path class="st2" d="M120.4700012,179.3300018h4.909996c1.6300049,0,2.3800049-0.0500031,3.2699966-0.1500092
				l0.5900116,0.6400146c-0.3500061,0.5399933-0.6900024,1.1899872-1.0900116,1.8299866
				c-1.4899902,2.4200134-3.8099976,5.3000031-6.2899933,7.5200043c-0.1999969-0.25-0.5400009-0.5-0.8899994-0.6399994
				c2.6199951-2.2299957,5.1500015-5.3000031,6.7799988-8.2200012h-9.5v21.9000092
				c0,1.9299927-0.7900009,2.5699921-3.0699997,2.5699921c-1.6299973,0-3.9599991-0.1499939-5.8899994-0.3999939
				c0-0.3500061-0.0999985-0.7900085-0.3000031-1.1399994c1.9800034,0.3499908,4.3600006,0.5399933,6.090004,0.5399933
				c1.6800003,0,2.0800018-0.3500061,2.0800018-1.7799988v-21.6799927h-5.640007
				c-1.4399948,0-2.6699982,0.0499878-3.7099991,0.1499939v-0.1699982v-1.1200104
				c1.090004,0.1000061,2.2799988,0.1500092,3.7099991,0.1500092H120.4700012z"/>
			<path class="st2" d="M120.4700012,178.5500031c-3.0200043-3.2200012-6.090004-5.9900055-9.5999985-8.5599976l0.7900009-0.6900024
				c1.8799973,1.3899994,3.7599945,2.9700012,5.5399933,4.5999908c2.9200058-2.4299927,5.9400024-5.5,8.0200043-8.6599884
				h-12.6699982c-1.4800034,0-2.5200043,0-3.7100067,0.1499939v-1.25v-0.0399933
				C110.0299988,164.25,111.0699997,164.25,112.5500031,164.25h10.6899948c1.6300049,0,2.3300018,0,3.2200012-0.1000061
				l0.4899979,0.5900116c-0.3499985,0.4499969-0.6899948,0.9399872-1.4799957,2.0299988
				c-1.6300049,2.2799988-4.5500031,5.3000031-7.5200043,7.769989c1.1399994,1.0400085,2.2300034,2.1300049,3.3199997,3.2200012
				L120.4700012,178.5500031z"/>
			<path class="st2" d="M177.7400055,182.5v1.2899933c-1.3400116-0.1499939-2.4300079-0.1499939-3.7100067-0.1499939h-35.4900055
				c-1.2899933,0-2.3799896,0-3.7099915,0.1499939V182.5c1.3399963,0.1499939,2.4299927,0.1499939,3.7099915,0.1499939h35.4900055
				C175.3200073,182.6499939,176.4100037,182.6499939,177.7400055,182.5z"/>
			<path class="st2" d="M226.5,178.7400055v1.2899933c-1.3399963-0.1499939-2.4299927-0.1499939-3.7100067-0.1499939h-22.5699921
				c-3.5099945,9.8499908-9.0099945,18.0699921-15.7900085,23.6599884c-0.25-0.25-0.5399933-0.5-0.9399872-0.6899872
				c6.7299957-5.4500122,12.1799927-13.3700104,15.6399994-22.9700012h-10.4900055c-1.2899933,0-2.3800049,0-3.7100067,0.1499939
				v-1.2899933c1.3400116,0.1499939,2.4300079,0.1499939,3.7100067,0.1499939h10.8399963
				c0.5900116-1.6300049,1.0900116-3.3199921,1.5299988-5.0500031c0.3500061-1.3399963,0.5900116-2.5699921,0.6900024-3.8099976
				l1.3800049,0.25c-0.4000092,1.1900024-0.6900024,2.4199982-1.0400085,3.7599945
				c-0.4499969,1.6300049-0.9399872,3.2700043-1.4799957,4.8500061h22.2299957
				C224.0800018,178.8899994,225.1699982,178.8899994,226.5,178.7400055z"/>
			<path class="st2" d="M225.1000061,175.0800018h-1.1800079v-6.9300079h-36.3300018v6.9300079h-1.1900024
				C186.5,174.1900024,186.5,173.6399994,186.5,172.75v-3.3699951c0-0.8899994,0-1.480011-0.1000061-2.3800049
				c1.1399994,0.1000061,2.3800049,0.1499939,3.7600098,0.1499939h14.5999908v-3.1199951
				c0-0.9400024,0-1.7799988-0.1499939-2.7200012H206c-0.1499939,0.9900055-0.1499939,1.7799988-0.1499939,2.7200012v3.1199951
				h15.4899902c1.3899994,0,2.6200104-0.0499878,3.7600098-0.1499939C225,167.8899994,225,168.4900055,225,169.3800049V172.75
				C225,173.6399994,225,174.1900024,225.1000061,175.0800018z"/>
			<path class="st2" d="M225.2700043,204.8399963l-0.9499969,0.6399994
				c-0.9400024-1.4799957-1.980011-3.0699921-3.1200104-4.6499939c-8.3699951,1.2899933-16.0899963,2.0800018-23.6100006,2.5200043
				c-1.5299988,0.0999908-2.8699951,0.1999969-4.0599976,0.3499908l-0.3000031-1.3399963
				c1.8300018,0,3.6100006-0.0500031,5.6900024-0.1499939h0.1500092c3.0699921-4.4600067,5.8899994-9.7000122,8.269989-15.1000061
				c0.5899963-1.3899994,1.0400085-2.5700073,1.3399963-3.7100067l1.3400116,0.5
				c-0.5900116,1.0900116-1.0400085,2.1800079-1.6800079,3.5600128c-2.4799957,5.3999939-5.3499908,10.6399994-8.0699921,14.6999969
				c5.8399963-0.3500061,13.019989-1.0899963,20.25-2.230011c-2.1300049-2.769989-4.5500031-5.6899872-7.1300049-8.4599915
				l0.9400024-0.5899963C218.5399933,195.4799957,222.3999939,200.4299927,225.2700043,204.8399963z"/>
			<path class="st2" d="M249.4199982,161.5099945l0.8399963,1.0400085
				c-1.0899963,0.4499969-1.8799896,0.7399902-2.9199982,1.1900024c-1.2899933,0.5399933-2.7200012,1.0899963-4.3099976,1.5299988
				v9.2599945h3.7100067c1.1399994,0,2.0299988,0,3.2200012-0.1499939v1.2899933
				c-1.1900024-0.1499939-2.0800018-0.1499939-3.2200012-0.1499939h-3.5100098
				c1.5299988,4.1599884,3.9100037,8.0699921,6.480011,10.7899933c-0.3000031,0.25-0.5400085,0.5899963-0.7400055,0.9400024
				c-2.4300079-2.8200073-4.6999969-6.6799927-6.0899963-10.3000031l0.1499939,8.2200012v16.0400085
				c0,1.2399902,0,2.6199951,0.1499939,4.2099915h-1.3899994c0.1500092-1.5800018,0.1500092-2.9700012,0.1500092-4.2099915
				v-16.0400085l0.1499939-8.0099945c-1.6799927,5.8399963-5,12.2799988-8.8600006,16.8799896
				c-0.1999969-0.3999939-0.5-0.6899872-0.7899933-0.8899994c3.9100037-4.3600006,7.4199982-10.8899994,9.2599945-17.6199951
				h-4.8000031c-1.0899963,0-2.0299988,0-3.2200012,0.1499939v-1.2899933
				c1.1900024,0.1499939,2.1300049,0.1499939,3.2200012,0.1499939h5.0500031v-8.9099884
				c-2.5200043,0.6900024-5.3000031,1.2899933-8.0200043,1.6799927c-0.0499878-0.3000031-0.1999969-0.6900024-0.4499969-0.9899902
				c4.9000092-0.6400146,9.8500061-1.8800049,13.3200073-3.4200134
				C247.8899994,162.4499969,248.6799927,162.0599976,249.4199982,161.5099945z"/>
			<path class="st2" d="M276.5400085,195.7299957c0.3500061,0.3000031,0.6399841,0.4499969,1.039978,0.5400085
				c-0.7399902,7.8199921-1.1899719,8.2200012-6.8299866,8.2200012c-4.7000122,0-5.2000122-0.3500061-5.2000122-2.8200073
				v-16.9299927h-6.2399902c-0.1499939,11.5800018-4.9499969,16.9799957-11.4799957,20.4899902
				c-0.1500092-0.25-0.4499969-0.5899963-0.8399963-0.8399963c6.4799957-3.3199921,11.0899811-8.3199921,11.2400055-19.6499939
				h-2.1300049c-1.2900085,0-2.5700073,0-3.8600006,0.1499939c0.1499939-1.2899933,0.1499939-2.5699921,0.1499939-3.8600006
				v-5.7400055c0-1.4899902,0-2.769989-0.1499939-4.0599976c1.2899933,0.1500092,2.5699921,0.1500092,3.8600006,0.1500092h9.5
				c1.7799988-2.9199982,3.5599976-6.5299988,4.7999878-10.0500031l1.1400146,0.5
				c-1.4900208,3.7099915-3.2700195,7.0800018-4.8000183,9.5500031h3.960022c1.289978,0,2.5699768,0,3.8599854-0.1500092
				c-0.1499939,1.2900085-0.1499939,2.5700073-0.1499939,3.8600006v5.9400024c0,1.2900085,0,2.5700073,0.1499939,3.8600006
				c-1.2900085-0.1499939-2.5700073-0.1499939-3.8599854-0.1499939h-4.0599976v16.7799988
				c0,1.7299957,0.25,1.9799957,4.1099854,1.9799957C275.7000122,203.5,276.1000061,203.25,276.5400085,195.7299957z"/>
			<rect x="253.4700012" y="172.3600006" class="st2" width="19.8500004" height="11.3900003"/>
			<path class="st2" d="M258.8200073,169.7400055c-1.0400085-2.5700073-2.6199951-5.5400085-4.1100006-7.6699982
				l0.9399872-0.4900055c1.4900208,2.1799927,3.0200195,5,4.1600037,7.6699982L258.8200073,169.7400055z"/>
			<path class="st2" d="M297.6199951,192.6600037c-3.6600037,1.8300018-8.2200012,3.8600006-11.6799927,5.25
				c-0.9899902,0.3999939-1.980011,0.7399902-2.8200073,1.1900024l-0.5-1.2900085
				c0.8900146-0.1999969,1.980011-0.5899963,2.9700012-0.9400024c1.2900085-0.5,2.769989-1.0899963,4.3099976-1.7299957v-15.1499939
				h-3.1199951c-1.0400085,0-2.0799866,0-3.1199951,0.1499939v-1.2899933C284.75,179,285.7399902,179,286.7799988,179h3.1199951
				v-13.4199982h-3.3699951c-1.1900024,0-2.230011,0-3.4599915,0.1499939v-1.2899933
				c1.2399902,0.1499939,2.2299805,0.1499939,3.4599915,0.1499939h7.519989c1.1900024,0,2.1800232,0,3.4200134-0.1499939v1.2899933
				c-1.2399902-0.1499939-2.230011-0.1499939-3.4200134-0.1499939h-3.0699768V179h2.9700012
				c1.039978,0,2.0299988,0,3.1199951-0.1499939v1.2899933c-1.0899963-0.1499939-2.0800171-0.1499939-3.1199951-0.1499939
				h-2.9700012v14.6999969c2.1799927-0.9400024,4.5-2.0299988,6.5299988-3.0700073L297.6199951,192.6600037z"/>
			<path class="st2" d="M327.019989,203.3500061c-1.3399963-0.1500092-2.4199829-0.1500092-3.6999817-0.1500092h-23.7600098
				c-1.2900085,0-2.3800049,0-3.7099915,0.1500092v-1.2900085c1.3399963,0.1500092,2.4299927,0.1500092,3.7099915,0.1500092
				h11.730011v-9.1600037h-7.8200073c-1.2900085,0-2.3800049,0-3.7099915,0.1499939v-0.5399933v-0.75
				c1.3399963,0.1499939,2.4299927,0.1499939,3.7099915,0.1499939h7.8200073v-7.7700043h-7.2799988
				c-1.2900085,0-2.5700073,0-3.8600159,0.1500092c0.1499939-1.2900085,0.1499939-2.5700073,0.1499939-3.8600006v-12.7700043
				c0-1.2099915,0-2.3999939-0.1299744-3.6100006v-0.0099945c0-0.0800018-0.0100098-0.1600037-0.0200195-0.2400055
				c1.2900085,0.1500092,2.5700073,0.1500092,3.8600159,0.1500092h16.4299927c1.2900085,0,2.5700073,0,3.8599854-0.1500092
				c-0.1499939,1.2900085-0.1499939,2.5700073-0.1499939,3.8600006v12.7700043c0,1.2899933,0,2.5699921,0.1499939,3.8600006
				c-1.289978-0.1500092-2.5699768-0.1500092-3.8599854-0.1500092h-8.0700073v7.7700043h8.7600098
				c1.2900085,0,2.3800049,0,3.7099915-0.1499939v1.2899933c-1.3399963-0.1499939-2.4299927-0.1499939-3.7099915-0.1499939
				h-8.7600098v9.1600037h10.9400024c1.2900085,0,2.3800049,0,3.7099915-0.1500092V203.3500061h0.0100098"/>
			<rect x="301.3900146" y="165.0899963" class="st2" width="9.8999996" height="8.5600004"/>
			<rect x="301.3900146" y="174.6399994" class="st2" width="9.8999996" height="8.6599998"/>
			<rect x="312.3699951" y="165.0800018" class="st2" width="10.6899996" height="8.5600004"/>
			<rect x="312.3699951" y="174.6399994" class="st2" width="10.6899996" height="8.6599998"/>
			<path class="st2" d="M375.3399963,177.9499969v1.2900085c-1.3399963-0.1500092-2.4299927-0.1500092-3.7099915-0.1500092
				h-17.3300171v21.8800049h14.2600098c1.2900085,0,2.3800049,0,3.7099915-0.1499939v1.2899933
				c-1.3399963-0.1499939-2.4299927-0.1499939-3.7099915-0.1499939h-28.7099915c-1.2900085,0-2.3800049,0-3.7099915,0.1499939
				v-1.2899933c1.3399963,0.1499939,2.4299927,0.1499939,3.7099915,0.1499939h13.3599854v-21.8800049h-16.289978
				c-1.2900085,0-2.3800049,0-3.710022,0.1500092v-1.2900085c1.3399963,0.1500092,2.4200134,0.1500092,3.710022,0.1500092h16.289978
				v-12.5700073c0-1.2899933,0-2.3800049-0.1499939-3.7099915h1.3900146
				c-0.1500244,1.3399963-0.1500244,2.4299927-0.1500244,3.7099915v12.5700073h17.3300171
				C372.9200134,178.1000061,374.0100098,178.1000061,375.3399963,177.9499969z"/>
			<path class="st2" d="M418.9400024,196.5200043h-15.1000061v5.8399963c0,1.9299927-0.7900085,2.5699921-3.4599915,2.5699921
				c-1.9299927,0-4.1600037-0.1499939-6.0899963-0.3499908c0-0.3500061-0.1000061-0.7900085-0.3000183-1.1399994
				c2.1300049,0.3000031,4.4100037,0.5,6.3399963,0.5c2.0299988,0,2.4300232-0.3500061,2.4300232-1.7799988v-5.6399994h-13.4100037
				c-1.2900085,0-2.3800049,0-3.7099915,0.1499939v-1.2899933c1.3399963,0.1499939,2.4299927,0.1499939,3.7099915,0.1499939
				h13.4100037v-5.5899963H385.730011c-1.2900085,0-2.3800049,0-3.710022,0.1499939v-1.2899933
				c1.3399963,0.1499939,2.4300232,0.1499939,3.710022,0.1499939h17.0299988V184h-13.3200073
				c-1.0400085,0-2.1300049,0-3.2200012,0.1499939v-1.2899933c1.0899963,0.1499939,2.1799927,0.1499939,3.2200012,0.1499939
				h13.3200073v-4.4099884h-10.4400024c-1.3399963,0-2.6199951,0.0499878-3.7600098,0.1499939
				c0.1000061-0.9400024,0.1000061-1.6799927,0.1000061-2.6699982v-2.2799988c0-0.9400024,0-1.7299957-0.1000061-2.6699982
				c1.1400146,0.0999908,2.4200134,0.1499939,3.7600098,0.1499939h10.4400024v-4.3099976h-16.6800232
				c-1.289978,0-2.3799744,0-3.7099915,0.1499939v-1.2899933c1.3399963,0.1499939,2.4200134,0.1499939,3.7099915,0.1499939
				h16.6800232v-1.5399933c0-1.2900085,0-2.3800049-0.1500244-3.7100067H404
				c-0.1499939,1.3400116-0.1499939,2.4300079-0.1499939,3.7100067v1.5399933h17.769989
				c1.2900085,0,2.3800049,0,3.7099915-0.1499939v1.2899933c-1.3399963-0.1499939-2.4199829-0.1499939-3.7099915-0.1499939
				h-17.769989v4.3099976h11.7299805c1.3400269,0,2.5700073-0.0500031,3.7600098-0.1499939
				c-0.1000061,0.9400024-0.1000061,1.7299957-0.1000061,2.6699982v2.2799988c0,0.9900055,0,1.7299957,0.1000061,2.6699982
				c-1.1900024-0.1000061-2.4199829-0.1499939-3.7600098-0.1499939h-11.7299805V183h12.9700012
				c1.289978,0,2.3299866,0,3.3699951-0.1499939c-0.1499939,1.2899933-0.1499939,2.5699921-0.1499939,3.8600006v2.2299957h2.2299805
				c1.2900085,0,2.3800049,0,3.710022-0.1500092v1.2900085c-1.3399963-0.1500092-2.4200134-0.1500092-3.710022-0.1500092h-2.2299805
				v5.0500031c0,1.2900085,0.0499878,2.5700073,0.1499939,3.8600006h-1.2399902v-2.3199921H418.9400024z"/>
			<rect x="389.730011" y="172.2599945" class="st2" width="13.0200005" height="5.3499999"/>
			<rect x="403.8399963" y="172.2599945" class="st2" width="14.3100004" height="5.3499999"/>
			<rect x="403.8399963" y="183.9900055" class="st2" width="15.1000004" height="4.9499998"/>
			<rect x="403.8399963" y="189.9400024" class="st2" width="15.1000004" height="5.5900002"/>
			<path class="st2" d="M443.0400085,202.2100067c0,1.9299927-0.7900085,2.6699982-3.0700073,2.6699982
				c-1.3900146,0-3.2200012-0.1500092-4.7000122-0.3500061c0-0.3500061-0.0999756-0.7899933-0.2999878-1.1399994
				c1.730011,0.3000031,3.5599976,0.5,4.8999939,0.5c1.6799927,0,2.0800171-0.4499969,2.0800171-1.8800049v-14.5999908
				l0.0999756-7.5700073c-2.0299988,6.480011-5.539978,12.4700012-10.1499939,17.2799988
				c-0.25-0.2999878-0.5899963-0.5399933-0.8899841-0.7399902c4.6999817-4.75,8.3199768-10.9900055,10.4400024-18.2700043
				h-6.2900085c-1.4400024,0-2.6700134,0.0500031-3.7099915,0.1499939v-1.2899933
				c1.0899963,0.1000061,2.2799988,0.1499939,3.7099915,0.1499939h12.0799866c1.6300049,0,2.3800049-0.0499878,3.2700195-0.1499939
				l0.5899963,0.5899963c-0.3000183,0.5400085-0.5,1.0400085-0.7400208,1.7799988
				c-0.6899719,1.9300079-1.5299988,4.0100098-3.0699768,6.3399963c-0.25-0.25-0.5400085-0.4499969-0.8900146-0.5399933
				c1.4900208-2.1799927,2.3800049-4.2599945,3.3200073-7.0299988h-6.6799927V202.2100067z"/>
			<path class="st2" d="M450.4299927,163.8000031l0.4500122,0.5899963
				c-0.3500061,0.3999939-0.5899963,0.7899933-1.4400024,1.9300079c-1.6799927,2.3299866-4.3600159,5.3499908-6.6300049,7.3299866
				c0.6400146,0.6900024,1.1900024,1.3400116,1.7799988,2.0299988l-0.8500061,0.7400055
				c-2.2799988-2.8699951-4.7999878-5.4900055-7.519989-7.6699982l0.8399963-0.5899963
				c1.730011,1.3899994,3.4599915,3.019989,5.1000061,4.8000031c2.2799988-1.980011,5.0499878-5.1500092,7.0299988-8.0700073
				h-12.8699951c-1.4900208,0-2.5200195,0-3.710022,0.1499939V163.75c1.1900024,0.1499939,2.230011,0.1499939,3.710022,0.1499939
				h10.8899841C448.8399963,163.8999939,449.5400085,163.8999939,450.4299927,163.8000031z"/>
			<path class="st2" d="M473.1400146,189.0299988c-0.1500244,0.7900085-0.2000122,1.2900085-0.25,1.9799957
				c-0.3500061,4.5-0.8900146,7.8700104-1.6300049,10.25c-0.6900024,2.2799988-2.0299988,2.9700012-4.210022,2.9700012
				c-1.6299744,0-3.3199768-0.1499939-5.0999756-0.4499969c0-0.3999939-0.1000061-0.7899933-0.25-1.1399994
				c1.9299927,0.3999939,3.7599792,0.5899963,5.2999878,0.5899963c1.7799988,0,2.769989-0.6399994,3.269989-2.1799927
				c0.7400208-2.3300018,1.2900085-5.6399994,1.6300049-10.8899994h-11.0400085
				c-0.9399719,3.3199921-2.5699768,6.4299927-5.1999817,9.2099915c-2.0299988,2.1300049-4.9500122,4.0599976-8.269989,5.5400085
				c-0.1500244-0.3500061-0.4000244-0.6900024-0.7400208-0.9400024c3.4200134-1.3399963,6.3900146-3.3699951,8.2700195-5.3500061
				c2.4799805-2.5699921,3.9599915-5.4400024,4.8499756-8.4599915h-7.9199829c-1.1400146,0-2.0800171,0-3.2200012,0.1499939
				v-1.2899933c1.1399841,0.1499939,2.0799866,0.1499939,3.2200012,0.1499939h8.1699829
				c0.3000183-1.1900024,0.5-2.3800049,0.6400146-3.5599976c0.0499878-0.6399994,0.1000061-1.3399963,0.1000061-2.0299988
				v-0.7400055l1.3399963,0.0599976c-0.2000122,0.9400024-0.3000183,1.9300079-0.3999939,2.8200073
				c-0.1500244,1.1900024-0.3500061,2.3300018-0.5900269,3.4599915h8.960022
				C471.1099854,189.1799927,472.1499939,189.1300049,473.1400146,189.0299988z"/>
			<path class="st2" d="M470.519989,167.9100037c-1.6799927,3.8600006-4.0599976,7.0800018-6.5799866,9.5500031
				c3.3699951,2.4799957,7.4700012,4.5499878,12.1799927,5.9399872c-0.2999878,0.25-0.5400085,0.6399994-0.6900024,0.9900055
				c-4.5-1.4299927-8.8099976-3.6100006-12.2799988-6.2400055c-3.2200012,2.9200134-7.2299805,4.9500122-11.5799866,6.5800018
				c-0.1499939-0.3499908-0.4500122-0.6900024-0.7900085-0.9400024c4.5-1.5299988,8.5100098-3.6100006,11.5799866-6.2899933
				c-2.6699829-2.1799927-5.0999756-5.0500031-6.8299866-7.9700012c-1.480011,2.0299988-3.0700073,3.9100037-4.6499939,5.3999939
				c-0.2000122-0.2999878-0.5400085-0.5899963-0.9400024-0.7399902c2.8699951-2.5200043,5.6900024-6.2400055,7.7200012-10.1000061
				c0.5400085-1.0399933,0.9899902-2.0299988,1.2900085-3.0699921l1.2399902,0.4499969
				c-0.5400085,0.9900055-1.0400085,2.0299988-1.5800171,3.0699921c-0.4499817,0.7900085-0.8899841,1.5800018-1.3399963,2.3800049
				h14.3600159c1.1399841,0,2.2299805,0,3.5599976-0.1499939v1.2899933
				c-1.3399963-0.1499939-2.4200134-0.1499939-3.5599976-0.1499939H470.519989z"/>
			<path class="st2" d="M469.3900146,167.9100037h-12.7800293c-0.1499939,0.25-0.3499756,0.5399933-0.4899902,0.7899933
				c1.7799988,3.0200043,4.2099915,5.8899994,6.980011,8.1200104C465.5700073,174.4900055,468,171.2299957,469.3900146,167.9100037z
				"/>
			<path class="st2" d="M485.8099976,186.4299927c-0.3999939,8.75-1.7799988,13.8500061-4.6499939,18.1600037
				c-0.3500061-0.3000031-0.6900024-0.5-1.0400085-0.5899963c3.3699951-4.8999939,4.7000122-10.8399963,4.7000122-23.0200043
				v-4.6999969c0-1.2400055,0-2.5699921-0.1499939-3.8099976c1.0899963,0.1000061,2.1299744,0.1499939,3.2200012,0.1499939
				h8.7099915c1.0400085,0,2.1300049,0,3.1699829-0.0999908c-0.1499939,1.0899963-0.1499939,2.0299988-0.1499939,3.1199951
				v7.7700043c0,1.0899963,0,2.0800018,0.1499939,3.1699982c-1.039978-0.1000061-2.1299744-0.1500092-3.1699829-0.1500092
				H485.8099976z"/>
			<line class="st2" x1="485.8099976" y1="186.4199982" x2="485.8099976" y2="186.4299927"/>
			<path class="st2" d="M502.3999939,164.5899963v1.2900085h-0.0099792
				c-1.3400269-0.1500092-2.4300232-0.1500092-3.710022-0.1500092h-13.269989c-1.2900085,0-2.3800049,0-3.7099915,0.1500092
				v-1.2900085c0.4899902,0.0500031,0.9400024,0.1000061,1.3899841,0.1000061
				c0.7900085,0.0500031,1.480011,0.0500031,2.3300171,0.0500031h13.269989
				C499.980011,164.7400055,501.0700073,164.7400055,502.3999939,164.5899963z"/>
			<path class="st2" d="M498.5299988,185.4299927v-11.8299866h-6.4299927h-6.1900024v7.4199982
				c0,1.5800018,0,3.019989-0.0500183,4.4099884H498.5299988z"/>
			<path class="st2" d="M525.1599731,176.6199951v1.2900085c-1.3399658-0.1500092-2.4299927-0.1500092-3.7099609-0.1500092
				h-3.2700195v23.6600037c0,1.2900085,0,2.3800049,0.1500244,3.7100067h-1.3800049
				c0.1499634-1.3400116,0.1499634-2.4300079,0.1499634-3.7100067v-23.6600037h-10.4399719
				c0,13.4600067-3.4599915,21.8300018-9.6000061,27.2700043c-0.25-0.3000031-0.5400085-0.5399933-0.9400024-0.7400055
				c6.0400085-5.1499939,9.4500122-13.0699921,9.4500122-27.0299988v-6.6799927c0-1.2900085,0-2.6199951-0.1499939-3.9100037
				c4.4599915-0.1999969,10.8399963-1.8800049,14.6000061-3.3699951c1.1900024-0.4499969,2.2299805-0.9400024,2.9699707-1.3899994
				l0.9400024,0.9400024c-1.1400146,0.4499969-2.1799927,0.8899994-3.3699951,1.3399963
				c-4.0100098,1.5299988-8.9100037,2.7700043-13.9100037,3.4199982v9.1600037h14.8000183
				C522.7399902,176.7700043,523.8300171,176.7700043,525.1599731,176.6199951z"/>
		</g>
	</g>
</g>
</svg>
